<svg width="40" height="40" viewBox="0 0 40 40" fill="none" xmlns="http://www.w3.org/2000/svg">
<path d="M33.5786 17.1246C32.2292 16.6215 30.7713 16.3622 29.2977 16.3633H10.7023C9.22877 16.3621 7.77098 16.621 6.4214 17.1235C4.51398 17.8321 2.89088 18.9973 1.75049 20.4767C0.610103 21.9562 0.00182267 23.6858 0 25.4542V38.1815C0 38.6637 0.225513 39.1261 0.626928 39.4671C1.02834 39.8081 1.57278 39.9996 2.14047 39.9996C2.70816 39.9996 3.25259 39.8081 3.65401 39.4671C4.05542 39.1261 4.28094 38.6637 4.28094 38.1815V37.2724C4.28441 37.0322 4.39828 36.8027 4.59824 36.6328C4.7982 36.463 5.0684 36.3662 5.35117 36.3633H34.6488C34.9316 36.3662 35.2018 36.463 35.4018 36.6328C35.6017 36.8027 35.7156 37.0322 35.7191 37.2724V38.1815C35.7191 38.6637 35.9446 39.1261 36.346 39.4671C36.7474 39.8081 37.2918 39.9996 37.8595 39.9996C38.4272 39.9996 38.9717 39.8081 39.3731 39.4671C39.7745 39.1261 40 38.6637 40 38.1815V25.4542C39.9979 23.686 39.3895 21.9566 38.2491 20.4774C37.1088 18.9982 35.4858 17.8331 33.5786 17.1246Z" fill="black"/>
<path d="M13.7792 0H26.2207C28.2076 0 30.1131 0.670453 31.5181 1.86387C32.9231 3.05728 33.7123 4.67589 33.7123 6.36364V14.5455C33.7125 14.616 33.6933 14.6856 33.6563 14.7487C33.6193 14.8119 33.5656 14.8669 33.4992 14.9093C33.4329 14.9517 33.3559 14.9805 33.2742 14.9933C33.1926 15.0061 33.1085 15.0025 33.0287 14.983C31.8603 14.6923 30.6489 14.545 29.4314 14.5455H28.8695C28.7375 14.5462 28.6097 14.5054 28.5109 14.4309C28.4121 14.3564 28.3493 14.2535 28.3344 14.142C28.2176 13.253 27.7191 12.4318 26.9343 11.8354C26.1494 11.2389 25.1333 10.9092 24.0802 10.9091H15.9197C14.8673 10.91 13.8522 11.2402 13.0682 11.8365C12.2842 12.4329 11.7863 13.2536 11.6695 14.142C11.6547 14.2535 11.5918 14.3564 11.493 14.4309C11.3942 14.5054 11.2665 14.5462 11.1344 14.5455H10.5685C9.35107 14.5446 8.13972 14.6915 6.97121 14.9818C6.89154 15.0014 6.80762 15.0049 6.72606 14.9922C6.6445 14.9795 6.56753 14.9508 6.50124 14.9085C6.43495 14.8662 6.38114 14.8114 6.34407 14.7484C6.30699 14.6854 6.28766 14.6159 6.2876 14.5455V6.36364C6.2876 4.67589 7.07689 3.05728 8.48185 1.86387C9.8868 0.670453 11.7923 0 13.7792 0Z" fill="black"/>
</svg>
