<svg width="48" height="43" viewBox="0 0 48 43" fill="none" xmlns="http://www.w3.org/2000/svg">
<path d="M22.8424 13.9524C22.8424 15.3123 21.4594 16.7676 19.6661 16.7676V39.7215C19.6661 42.9808 14.7086 42.9808 14.7086 39.7215V16.7676C12.9626 16.7676 11.4424 15.5629 11.4424 13.7582V1.12565C11.4424 0.0264649 13.2154 -0.0151913 13.2154 1.16865V10.5064H14.7004V1.08265C14.7004 0.0728243 16.4089 0.0083243 16.4089 1.12565V10.507H17.9434V1.09609C17.9434 0.0399024 19.6009 -0.00242573 19.6009 1.13775V10.507H21.1106V1.09609C21.1106 0.0506524 22.8424 0.00966802 22.8424 1.13775V13.9531V13.9524Z" fill="white"/>
<path d="M36.0666 4.06125V39.7103C36.0666 42.897 31.0986 42.8499 31.0986 39.7103V25.5653H28.4541V4.06125C28.4541 -0.944895 36.0674 -0.944895 36.0674 4.06125H36.0666Z" fill="white"/>
</svg>
