<svg width="536" height="512" viewBox="0 0 536 512" fill="none" xmlns="http://www.w3.org/2000/svg">
<path d="M508.1 171.501L362 150.201L296.7 17.801C285 -5.79904 251.1 -6.09904 239.3 17.801L174 150.201L27.9 171.501C1.69999 175.301 -8.80001 207.601 10.2 226.101L115.9 329.101L90.9 474.601C86.4 500.901 114.1 520.601 137.3 508.301L268 439.601L398.7 508.301C421.9 520.501 449.6 500.901 445.1 474.601L420.1 329.101L525.8 226.101C544.8 207.601 534.3 175.301 508.1 171.501V171.501ZM368.6 312.301L392.3 450.701L268 385.401L143.7 450.701L167.4 312.301L66.8 214.301L205.8 194.101L268 68.101L330.2 194.101L469.2 214.301L368.6 312.301V312.301Z" fill="#FEE481"/>
</svg>
