<svg width="25" height="36" viewBox="0 0 25 36" fill="none" xmlns="http://www.w3.org/2000/svg">
<path d="M13.8889 0C12.934 0 12.1166 0.338942 11.4366 1.01683C10.7567 1.69471 10.4167 2.50962 10.4167 3.46154C10.4167 4.41346 10.7567 5.22837 11.4366 5.90625C12.1166 6.58413 12.934 6.92308 13.8889 6.92308C14.8437 6.92308 15.6612 6.58413 16.3411 5.90625C17.0211 5.22837 17.3611 4.41346 17.3611 3.46154C17.3611 2.50962 17.0211 1.69471 16.3411 1.01683C15.6612 0.338942 14.8437 0 13.8889 0ZM5.96788 34.9615L9.63542 28.9688C10.0405 28.3053 10.3443 27.6418 10.5469 26.9784L11.8056 22.8245L15.6033 26.7837L18.9236 34.7236C19.0828 35.113 19.3323 35.4231 19.6723 35.6538C20.0123 35.8846 20.3993 36 20.8333 36C21.412 36 21.9039 35.7981 22.309 35.3942C22.7141 34.9904 22.9167 34.5 22.9167 33.9231C22.9167 33.6779 22.866 33.4183 22.7648 33.1442L19.7266 25.6803C19.5385 25.2043 19.3902 24.8834 19.2817 24.7175C19.1732 24.5517 18.9308 24.2668 18.5547 23.863L14.2795 19.2764L15.5816 13.1755L16.7969 15.5337C17.0284 16.024 17.3466 16.3774 17.7517 16.5938C17.8385 16.637 19.3359 17.3942 22.2439 18.8654C22.9384 19.2115 23.3941 19.3846 23.6111 19.3846C24.0162 19.3846 24.349 19.2548 24.6094 18.9952C24.8698 18.7356 25 18.4038 25 18C25 17.4087 24.7251 16.9688 24.1753 16.6803L19.2057 14.0409L17.2526 9.58414C16.8909 8.79087 16.4135 8.35817 15.8203 8.28606L10.8507 7.72356C10.3877 7.68029 9.76562 7.81731 8.98438 8.13462L3.73264 10.2115C3.44329 10.3269 3.16117 10.5216 2.88628 10.7957C2.6114 11.0697 2.43056 11.351 2.34375 11.6394C1.20081 14.5817 0.448495 16.5433 0.0868056 17.524C0.0289352 17.6538 0 17.8125 0 18C0 18.375 0.137442 18.6995 0.412326 18.9736C0.687211 19.2476 1.01273 19.3846 1.38889 19.3846C1.67824 19.3846 1.97121 19.3161 2.2678 19.1791C2.56438 19.0421 2.75608 18.8654 2.84288 18.649L5.05642 12.851L9.61372 11.1418L6.42361 26.0048L2.34375 32.9279C2.17014 33.2596 2.08333 33.5913 2.08333 33.9231C2.08333 34.5 2.28588 34.9904 2.69097 35.3942C3.09606 35.7981 3.58796 36 4.16667 36C4.94792 36 5.54832 35.6538 5.96788 34.9615Z" fill="white"/>
</svg>
