<svg width="552" height="318" viewBox="0 0 552 318" fill="none" xmlns="http://www.w3.org/2000/svg">
<path d="M0 318H308.496V275.5H267V295.5H23.5V139.5L133.726 33.5L267 128.942H308.496L133.726 0L0 128.942V318Z" fill="#E8783A"/>
<path d="M115.92 175.2V248H93.84V134.4H110.96L170.16 208.96V134.56H192.24V248H174.32L115.92 175.2ZM278.751 162.8H293.391L325.791 248H308.751L300.831 226.76H271.071L263.271 248H246.231L278.751 162.8ZM297.831 215.12L286.071 181.64L273.831 215.12H297.831ZM391.376 175.2V248H369.296V134.4H386.416L445.616 208.96V134.56H467.696V248H449.776L391.376 175.2ZM528.407 248V185.12H544.487V248H528.407ZM528.407 176.36V160.4H544.487V176.36H528.407Z" fill="#DBDBDB"/>
</svg>
