<svg width="32" height="32" viewBox="0 0 32 32" fill="none" xmlns="http://www.w3.org/2000/svg">
<path d="M14.8695 30.3745C6.54516 17.621 5 16.3121 5 11.625C5 5.20467 9.92485 0 16 0C22.0752 0 27 5.20467 27 11.625C27 16.3121 25.4548 17.621 17.1305 30.3745C16.5842 31.2085 15.4157 31.2085 14.8695 30.3745ZM16 16.4687C18.5313 16.4687 20.5833 14.3001 20.5833 11.625C20.5833 8.94985 18.5313 6.78125 16 6.78125C13.4687 6.78125 11.4167 8.94985 11.4167 11.625C11.4167 14.3001 13.4687 16.4687 16 16.4687Z" fill="black"/>
</svg>
