<svg width="64" height="40" viewBox="0 0 64 40" fill="none" xmlns="http://www.w3.org/2000/svg">
<path d="M57.1429 17.1246C55.7019 16.6215 54.1451 16.3622 52.5714 16.3633H11.4286C9.85501 16.3621 8.2983 16.621 6.85714 17.1235C4.82029 17.8321 3.08705 18.9973 1.86928 20.4767C0.651503 21.9562 0.00194635 23.6858 0 25.4542V38.1815C0 38.6637 0.240816 39.1261 0.66947 39.4671C1.09812 39.8081 1.67951 39.9996 2.28571 39.9996C2.89192 39.9996 3.4733 39.8081 3.90196 39.4671C4.33061 39.1261 4.57143 38.6637 4.57143 38.1815V37.2724C4.57513 37.0322 4.69673 36.8027 4.91026 36.6328C5.12379 36.463 5.41233 36.3662 5.71429 36.3633H58.2857C58.5877 36.3662 58.8762 36.463 59.0897 36.6328C59.3033 36.8027 59.4249 37.0322 59.4286 37.2724V38.1815C59.4286 38.6637 59.6694 39.1261 60.098 39.4671C60.5267 39.8081 61.1081 39.9996 61.7143 39.9996C62.3205 39.9996 62.9019 39.8081 63.3305 39.4671C63.7592 39.1261 64 38.6637 64 38.1815V25.4542C63.9978 23.686 63.3481 21.9566 62.1303 20.4774C60.9126 18.9982 59.1795 17.8331 57.1429 17.1246V17.1246Z" fill="black"/>
<path d="M49.1429 0H14.8572C12.7354 0 10.7006 0.670453 9.20032 1.86387C7.70003 3.05728 6.85718 4.67589 6.85718 6.36364V14.5455C6.85724 14.6159 6.87788 14.6854 6.91748 14.7484C6.95707 14.8114 7.01453 14.8662 7.08532 14.9085C7.15611 14.9508 7.2383 14.9795 7.32539 14.9922C7.41248 15.0049 7.5021 15.0014 7.58718 14.9818C8.83498 14.6915 10.1285 14.5446 11.4286 14.5455H12.0329C12.1739 14.5462 12.3103 14.5054 12.4158 14.4309C12.5213 14.3564 12.5885 14.2535 12.6043 14.142C12.729 13.2536 13.2607 12.4329 14.0979 11.8365C14.9351 11.2402 16.0191 10.91 17.1429 10.9091H25.1429C26.2674 10.9092 27.3525 11.2389 28.1906 11.8354C29.0287 12.4318 29.561 13.253 29.6857 14.142C29.7016 14.2535 29.7688 14.3564 29.8742 14.4309C29.9797 14.5054 30.1161 14.5462 30.2572 14.5455H33.7515C33.8925 14.5462 34.0289 14.5054 34.1344 14.4309C34.2399 14.3564 34.307 14.2535 34.3229 14.142C34.4475 13.2542 34.9786 12.4339 35.8149 11.8376C36.6511 11.2414 37.7341 10.9108 38.8572 10.9091H46.8572C47.9817 10.9092 49.0668 11.2389 49.9049 11.8354C50.743 12.4318 51.2753 13.253 51.4 14.142C51.4159 14.2535 51.483 14.3564 51.5885 14.4309C51.694 14.5054 51.8304 14.5462 51.9715 14.5455H52.5715C53.8716 14.545 55.1652 14.6923 56.4129 14.983C56.4981 15.0025 56.5878 15.0061 56.675 14.9933C56.7622 14.9805 56.8445 14.9517 56.9153 14.9093C56.9861 14.8669 57.0436 14.8119 57.0831 14.7487C57.1226 14.6856 57.143 14.616 57.1429 14.5455V6.36364C57.1429 4.67589 56.3 3.05728 54.7997 1.86387C53.2995 0.670453 51.2646 0 49.1429 0Z" fill="black"/>
</svg>
