<svg width="40" height="40" viewBox="0 0 40 40" fill="none" xmlns="http://www.w3.org/2000/svg">
<path d="M24.3785 15.062L30.6368 12.233L25.3138 6.43716L20.8455 13.626L19.2204 7.51707L13.0729 10.4668L17.5911 14.4221L6.56181 13.3823L5.90223 20.3788L7.84145 20.5616L6.68719 32.8053L30.6851 35.0677L31.8394 22.8239L33.7786 23.0068L34.4382 16.0103L24.3785 15.062ZM25.5879 8.78115L28.3732 11.8138L21.8287 14.7801L25.5879 8.78115V8.78115ZM18.25 9.48798L19.5304 14.3011L15.5255 10.7953L18.25 9.48798ZM16.9118 32.0046L8.79131 31.239L9.83233 20.1965L17.9529 20.962L16.9118 32.0046V32.0046ZM18.0661 19.7608L8.00635 18.8124L8.33614 15.3142L18.3959 16.2626L18.0661 19.7608V19.7608ZM28.9108 33.1358L20.7903 32.3702L21.8313 21.3277L29.9518 22.0932L28.9108 33.1358ZM32.0043 21.0748L21.9445 20.1264L22.2743 16.6282L32.3341 17.5766L32.0043 21.0748V21.0748Z" fill="white"/>
</svg>
