<svg width="101" height="32" viewBox="0 0 101 32" fill="none" xmlns="http://www.w3.org/2000/svg">
<path d="M92.5 10V1H1V31H92.5V22.5" stroke="white"/>
<path d="M92.5 9.5704L100.5 13.9626V22.5H84.5V13.9626L92.5 9.5704Z" stroke="white"/>
<path d="M14.18 12.2164V23.8164H12.78V9.61641H13.86L23.26 21.4364V9.63641H24.66V23.8164H23.44L14.18 12.2164ZM37.7932 12.4564H38.7372L43.4572 23.8164H42.2732L40.8012 20.2644H35.6972L34.2412 23.8164H33.0412L37.7932 12.4564ZM40.5452 19.3844L38.2572 13.7684L35.9372 19.3844H40.5452ZM51.9617 12.2164V23.8164H50.5617V9.61641H51.6417L61.0417 21.4364V9.63641H62.4417V23.8164H61.2217L51.9617 12.2164ZM72.1309 23.8164V13.3964H73.4909V23.8164H72.1309ZM72.1309 11.2164V9.21641H73.4909V11.2164H72.1309Z" fill="white"/>
</svg>
