<svg width="32" height="32" viewBox="0 0 32 32" fill="none" xmlns="http://www.w3.org/2000/svg">
<path d="M1.95667 7.2505L14.4567 14.3012C14.8767 14.5375 15.42 14.6495 15.9667 14.6495C16.5133 14.6495 17.0567 14.5375 17.4767 14.3012L29.9767 7.2505C30.7917 6.79025 31.5617 5 30.0667 5H1.86834C0.373336 5 1.14334 6.79025 1.95667 7.2505V7.2505ZM30.355 11.1057L17.4767 18.153C16.91 18.4645 16.5133 18.5013 15.9667 18.5013C15.42 18.5013 15.0233 18.4645 14.4567 18.153C13.89 17.8415 2.56834 11.6098 1.64334 11.104C0.993336 10.747 1 11.1652 1 11.4872V24.25C1 24.985 1.94334 26 2.66667 26H29.3333C30.0567 26 31 24.985 31 24.25V11.489C31 11.167 31.0067 10.7487 30.355 11.1057V11.1057Z" fill="black"/>
</svg>
