<svg width="32" height="32" viewBox="0 0 32 32" fill="none" xmlns="http://www.w3.org/2000/svg">
<path d="M23.4667 19.2C21.3333 21.3333 21.3333 23.4667 19.2 23.4667C17.0667 23.4667 14.9333 21.3333 12.8 19.2C10.6667 17.0667 8.53333 14.9333 8.53333 12.8C8.53333 10.6667 10.6667 10.6667 12.8 8.53333C14.9333 6.4 8.53333 0 6.4 0C4.26667 0 0 6.4 0 6.4C0 10.6667 4.384 19.3173 8.53333 23.4667C12.6827 27.616 21.3333 32 25.6 32C25.6 32 32 27.7333 32 25.6C32 23.4667 25.6 17.0667 23.4667 19.2Z" fill="black"/>
</svg>
