<svg width="105" height="95" viewBox="0 0 105 95" fill="none" xmlns="http://www.w3.org/2000/svg">
<path d="M37.6411 20.2586L43.8333 17.452L38.5616 11.691L34.1437 18.8299L32.5316 12.76L26.4493 15.6867L30.9234 19.6187L20.0071 18.579L19.3585 25.5291L21.2779 25.7119L20.143 37.8746L43.8949 40.1368L45.0299 27.9742L46.9492 28.157L47.5978 21.2069L37.6411 20.2586ZM38.8343 14.0197L41.5927 17.0342L35.1175 19.977L38.8343 14.0197V14.0197ZM31.5724 14.7174L32.8426 19.4997L28.8768 16.0145L31.5724 14.7174ZM30.2617 37.0854L22.2244 36.3199L23.248 25.3505L31.2853 26.116L30.2617 37.0854V37.0854ZM31.3967 24.9227L21.44 23.9744L21.7643 20.4994L31.7209 21.4477L31.3967 24.9227V24.9227ZM42.1377 38.2165L34.1004 37.451L35.124 26.4816L43.1613 27.2471L42.1377 38.2165ZM45.192 26.2366L35.2354 25.2883L35.5596 21.8133L45.5163 22.7616L45.192 26.2366V26.2366Z" fill="white"/>
<path d="M91.2417 20.2586L97.4339 17.452L92.1622 11.691L87.7443 18.8299L86.1322 12.76L80.0499 15.6867L84.524 19.6187L73.6077 18.579L72.9591 25.5291L74.8785 25.7119L73.7435 37.8746L97.4955 40.1368L98.6305 27.9742L100.55 28.157L101.198 21.2069L91.2417 20.2586ZM92.4348 14.0197L95.1933 17.0342L88.7181 19.977L92.4348 14.0197V14.0197ZM85.173 14.7174L86.4432 19.4997L82.4774 16.0145L85.173 14.7174ZM83.8623 37.0854L75.825 36.3199L76.8486 25.3505L84.8859 26.116L83.8623 37.0854V37.0854ZM84.9973 24.9227L75.0406 23.9744L75.3649 20.4994L85.3215 21.4477L84.9973 24.9227V24.9227ZM95.7383 38.2165L87.701 37.451L88.7246 26.4816L96.7619 27.2471L95.7383 38.2165ZM98.7926 26.2366L88.8359 25.2883L89.1602 21.8133L99.1169 22.7616L98.7926 26.2366V26.2366Z" fill="white"/>
<path d="M21.4307 64.9458L27.6253 62.1356L22.3567 56.3787L17.9337 63.5195L16.3253 57.4515L10.2403 60.3816L14.7125 64.3103L3.79554 63.2777L3.14255 70.2274L5.06202 70.409L3.9193 82.5709L27.6727 84.8177L28.8155 72.6558L30.735 72.8374L31.3879 65.8877L21.4307 64.9458ZM22.6279 58.707L25.3848 61.7194L18.9069 64.6659L22.6279 58.707V58.707ZM15.3647 59.4092L16.632 64.1902L12.668 60.7078L15.3647 59.4092ZM14.0398 81.7753L6.00202 81.015L7.03263 70.0463L15.0704 70.8066L14.0398 81.7753V81.7753ZM15.1825 69.6134L5.22527 68.6715L5.55176 65.1967L15.509 66.1386L15.1825 69.6134V69.6134ZM25.9165 82.8988L17.8787 82.1385L18.9093 71.1697L26.9472 71.93L25.9165 82.8988ZM28.9787 70.9184L19.0214 69.9765L19.3479 66.5017L29.3052 67.4435L28.9787 70.9184V70.9184Z" fill="white"/>
<path d="M74.4093 64.9462L80.6039 62.1361L75.3351 56.379L70.9123 63.5198L69.3038 57.4517L63.2189 60.3817L67.6912 64.3106L56.7742 63.2777L56.1213 70.2274L58.0408 70.409L56.8983 82.571L80.6517 84.8182L81.7942 72.6563L83.7137 72.8379L84.3666 65.8882L74.4093 64.9462ZM75.6064 58.7073L78.3633 61.7198L71.8855 64.6662L75.6064 58.7073V58.7073ZM68.3433 59.4094L69.6107 64.1904L65.6465 60.708L68.3433 59.4094ZM67.0188 81.7756L58.981 81.0152L60.0114 70.0464L68.0492 70.8068L67.0188 81.7756V81.7756ZM68.1613 69.6136L58.204 68.6716L58.5305 65.1968L68.4877 66.1388L68.1613 69.6136V69.6136ZM78.8955 82.8992L70.8577 82.1388L71.8881 71.17L79.9259 71.9305L78.8955 82.8992ZM81.9574 70.9188L72.0002 69.9768L72.3266 66.502L82.2838 67.444L81.9574 70.9188V70.9188Z" fill="white"/>
</svg>
