<svg width="38" height="33" viewBox="0 0 38 33" fill="none" xmlns="http://www.w3.org/2000/svg">
<g clip-path="url(#clip0)">
<path d="M37.6977 9.9825C27.1783 -0.579434 10.8175 -0.575566 0.302168 9.9825C-0.0932692 10.3795 -0.100988 11.0518 0.281387 11.4636L1.78125 12.9643C2.14581 13.3575 2.58994 13.3413 2.96875 12.9643C11.6327 4.34819 26.3655 4.34626 35.0312 12.9643C35.4101 13.3413 35.8542 13.3568 36.2187 12.9643L37.7191 11.4636C38.1009 11.0518 38.0932 10.3795 37.6977 9.9825ZM18.9999 22.6875C16.901 22.6875 15.1999 24.5341 15.1999 26.8125C15.1999 29.0909 16.901 30.9375 18.9999 30.9375C21.0989 30.9375 22.7999 29.0909 22.7999 26.8125C22.7999 24.5341 21.0989 22.6875 18.9999 22.6875ZM31.0335 17.2999C24.1899 10.7302 13.8023 10.7372 6.96642 17.2999C6.55673 17.693 6.54367 18.3756 6.93257 18.792L8.3125 20.0357C8.66875 20.4173 9.71434 20.3915 10.0937 20.0357C15.0783 15.3584 22.9336 15.3687 27.9062 20.0357C28.2857 20.3915 29.3312 20.4179 29.6875 20.0357L31.0667 18.792C31.4562 18.3756 31.4426 17.6924 31.0335 17.2999Z" fill="white"/>
</g>
<defs>
<clipPath id="clip0">
<rect width="38" height="33" fill="white"/>
</clipPath>
</defs>
</svg>
